<?xml version="1.0" encoding="UTF-8"?>
<!DOCTYPE svg PUBLIC "-//W3C//DTD SVG 1.1//EN" "http://www.w3.org/Graphics/SVG/1.1/DTD/svg11.dtd">
<!-- Creator: CorelDRAW X7 -->
<svg xmlns="http://www.w3.org/2000/svg" xml:space="preserve" width="600px" height="450px" version="1.1" style="shape-rendering:geometricPrecision; text-rendering:geometricPrecision; image-rendering:optimizeQuality; fill-rule:evenodd; clip-rule:evenodd"
viewBox="0 0 600 450"
 xmlns:xlink="http://www.w3.org/1999/xlink">
 <defs>
  <style type="text/css">
   <![CDATA[
    .str1 {stroke:black;stroke-width:4.16575;stroke-linecap:round;stroke-linejoin:round}
    .str0 {stroke:black;stroke-width:4.16575;stroke-linecap:round;stroke-linejoin:round}
    .fil0 {fill:none}
    .fil1 {fill:none;fill-rule:nonzero}
   ]]>
  </style>
 </defs>
 <g id="Layer_x0020_1">
  <metadata id="CorelCorpID_0Corel-Layer"/>
  <g id="_705780912">
   <path class="fil0 str0" d="M186 209l1 -62 23 -1 0 7 58 -18 -24 -7 -1 -12 32 0 1 -6 15 -4 30 23 7 -13 -24 0m51 3l8 0 1 -6 20 -2 44 27"/>
   <polygon class="fil0 str0" points="267,239 267,270 228,265 4,184 13,157 54,162 "/>
   <polyline class="fil0 str0" points="154,197 156,167 174,167 187,157 "/>
   <polyline class="fil0 str0" points="203,293 187,291 173,267 173,246 "/>
   <polyline class="fil0 str0" points="431,253 513,253 536,270 536,264 544,258 547,238 537,208 539,195 596,162 596,157 507,114 429,125 428,138 "/>
   <line class="fil0 str0" x1="547" y1="238" x2="431" y2= "238" />
   <polyline class="fil0 str0" points="395,156 403,151 594,157 "/>
   <line class="fil0 str0" x1="425" y1="190" x2="539" y2= "195" />
   <line class="fil0 str0" x1="424" y1="202" x2="537" y2= "208" />
   <polyline class="fil0 str0" points="403,151 336,106 328,116 393,155 425,190 422,202 431,238 431,255 421,262 420,270 "/>
   <line class="fil0 str0" x1="426" y1="152" x2="364" y2= "113" />
   <line class="fil0 str0" x1="473" y1="153" x2="429" y2= "125" />
   <line class="fil0 str0" x1="210" y1="216" x2="210" y2= "153" />
   <line class="fil0 str0" x1="173" y1="203" x2="174" y2= "167" />
   <path class="fil0 str0" d="M255 269c-6,-9 -9,-11 -8,-27l-234 -85"/>
   <polyline class="fil0 str0" points="420,270 318,189 312,172 268,135 "/>
   <polyline class="fil0 str0" points="545,238 528,254 513,253 "/>
   <line class="fil0 str0" x1="536" y1="264" x2="528" y2= "254" />
   <path class="fil0 str0" d="M429 190c2,-17 4,-22 11,-38"/>
   <path class="fil0 str0" d="M458 191c3,-16 5,-21 11,-37"/>
   <path class="fil0 str0" d="M488 192c2,-17 4,-22 10,-38"/>
   <path class="fil0 str0" d="M516 193c2,-17 4,-22 11,-38"/>
   <path class="fil0 str0" d="M545 191c2,-16 4,-19 10,-35"/>
   <line class="fil0 str0" x1="422" y1="202" x2="321" y2= "129" />
   <line class="fil0 str0" x1="280" y1="148" x2="280" y2= "253" />
   <path class="fil0 str0" d="M321 245l0 -37 -12 1m-11 1l-20 2 -28 0 -40 4"/>
   <line class="fil0 str0" x1="278" y1="229" x2="250" y2= "229" />
   <line class="fil0 str0" x1="281" y1="292" x2="280" y2= "271" />
   <line class="fil0 str0" x1="250" y1="233" x2="250" y2= "212" />
   <line class="fil0 str0" x1="290" y1="297" x2="289" y2= "211" />
   <polyline class="fil0 str0" points="358,249 328,251 305,251 "/>
   <polyline class="fil0 str0" points="334,298 332,268 290,266 "/>
   <polyline class="fil0 str0" points="332,268 355,260 360,239 379,240 379,271 "/>
   <polyline class="fil0 str0" points="298,320 365,278 365,239 "/>
   <polyline class="fil0 str0" points="450,271 380,272 372,284 312,322 298,320 "/>
   <line class="fil0 str0" x1="443" y1="283" x2="372" y2= "284" />
   <polygon class="fil0 str0" points="299,172 309,172 309,230 299,230 "/>
   <line class="fil0 str0" x1="304" y1="264" x2="304" y2= "231" />
   <line class="fil0 str0" x1="325" y1="267" x2="325" y2= "253" />
   <line class="fil0 str0" x1="316" y1="251" x2="337" y2= "228" />
   <line class="fil0 str0" x1="354" y1="249" x2="309" y2= "194" />
   <polyline class="fil0 str0" points="360,239 353,230 350,215 "/>
   <line class="fil0 str0" x1="290" y1="266" x2="246" y2= "289" />
   <path class="fil0 str0" d="M288 250l-20 10m-13 9c-15,9 -11,6 -19,20"/>
   <polyline class="fil0 str0" points="376,317 452,278 454,253 "/>
   <polyline class="fil0 str0" points="393,319 465,282 466,255 "/>
   <line class="fil0 str0" x1="376" y1="317" x2="351" y2= "297" />
   <line class="fil0 str0" x1="419" y1="295" x2="319" y2= "317" />
   <line class="fil0 str0" x1="298" y1="327" x2="393" y2= "319" />
   <path class="fil1 str1" d="M203 293c-8,8 -12,27 1,37 0,0 52,13 54,12 7,-3 16,-34 0,-43 -2,-1 -47,-6 -55,-6z"/>
   <path class="fil1 str1" d="M258 342c7,1 20,2 29,1 15,-2 18,-53 -14,-53 -30,-2 -48,0 -70,3"/>
   <line class="fil0 str0" x1="451" y1="153" x2="428" y2= "138" />
   <path class="fil1 str1" d="M204 312c0,5 2,10 5,10 2,0 4,-5 4,-10 0,-6 -2,-10 -5,-10 -2,0 -4,4 -4,10z"/>
   <line class="fil0 str0" x1="290" y1="298" x2="258" y2= "299" />
   <line class="fil0 str0" x1="297" y1="310" x2="266" y2= "312" />
   <line class="fil0 str0" x1="297" y1="323" x2="267" y2= "324" />
   <line class="fil0 str0" x1="295" y1="335" x2="264" y2= "336" />
   <line class="fil0 str0" x1="270" y1="290" x2="235" y2= "296" />
   <path class="fil1 str1" d="M335 324c0,0 51,13 53,13 3,-2 7,-9 8,-17"/>
   <path class="fil1 str1" d="M388 337c7,0 20,2 29,0 9,-1 15,-20 9,-35"/>
   <line class="fil0 str0" x1="427" y1="318" x2="397" y2= "319" />
   <line class="fil0 str0" x1="425" y1="330" x2="394" y2= "330" />
   <line class="fil0 str0" x1="339" y1="154" x2="339" y2= "163" />
   <line class="fil0 str0" x1="363" y1="171" x2="362" y2= "180" />
   <line class="fil0 str0" x1="386" y1="189" x2="385" y2= "198" />
   <line class="fil0 str0" x1="412" y1="206" x2="411" y2= "213" />
   <line class="fil0 str0" x1="316" y1="138" x2="315" y2= "146" />
  </g>
 </g>
</svg>
